<?xml version="1.0" encoding="UTF-8"?>
<svg id="Capa_1" data-name="Capa 1" xmlns="http://www.w3.org/2000/svg" viewBox="0 0 1080 1080">
  <defs>
    <style>
      .cls-1 {
        fill: #fff;
      }
    </style>
  </defs>
  <g>
    <path class="cls-1" d="M347.92,639.23c13.6,0,25,2.2,34.21,6.59,9.21,4.39,16.64,10.17,22.31,17.32,5.66,7.15,9.74,15.34,12.22,24.54,2.48,9.21,3.72,18.63,3.72,28.26s-1.24,19.05-3.72,28.26c-2.48,9.21-6.56,17.39-12.22,24.54-5.67,7.15-13.11,12.93-22.31,17.32-9.21,4.39-20.61,6.58-34.21,6.58s-25-2.2-34.21-6.58c-9.21-4.39-16.64-10.17-22.31-17.32-5.67-7.15-9.74-15.33-12.22-24.54-2.48-9.21-3.72-18.62-3.72-28.26s1.24-19.05,3.72-28.26c2.48-9.21,6.55-17.39,12.22-24.54,5.66-7.15,13.1-12.92,22.31-17.32,9.21-4.39,20.61-6.59,34.21-6.59Zm0,150.01c15.86,0,28.4-6.27,37.61-18.81,9.21-12.54,13.81-30.7,13.81-54.5s-4.61-41.96-13.81-54.5c-9.21-12.54-21.75-18.81-37.61-18.81-7.94,0-15.05,1.63-21.36,4.89-6.3,3.26-11.68,8.04-16.15,14.34-4.46,6.3-7.9,13.99-10.31,23.05s-3.61,19.41-3.61,31.02,1.2,21.96,3.61,31.02,5.85,16.75,10.31,23.05c4.47,6.3,9.84,11.09,16.15,14.34,6.3,3.26,13.42,4.89,21.36,4.89Z"/>
    <path class="cls-1" d="M493.68,788.6c-4.67,2.97-9.78,4.32-15.3,4.04-7.94,0-13.99-1.41-18.16-4.25-4.18-2.83-7.26-5.95-9.24-9.35-2.27-3.82-3.54-8.29-3.82-13.39v-73.52h-15.09v-3.4h15.09v-21.89l19.76-9.56v31.44h26.13v3.4h-26.13v77.98c0,1.14,.14,2.77,.42,4.89s.96,4.21,2.02,6.27c1.06,2.06,2.58,3.86,4.57,5.42,1.98,1.56,4.67,2.34,8.07,2.34,1.7,0,3.4-.21,5.1-.64s3.25-1.13,4.67-2.12l1.91,2.34Z"/>
    <path class="cls-1" d="M562.73,788.18c7.23-.56,13.7-2.94,19.44-7.12,5.73-4.18,9.88-9.59,12.43-16.25l3.4,.85c-1.84,5.1-4.67,9.56-8.5,13.39-3.26,3.4-7.83,6.52-13.7,9.35-5.88,2.83-13.49,4.25-22.84,4.25-8.78,0-16.33-1.38-22.63-4.14-6.3-2.76-11.44-6.55-15.41-11.37-3.96-4.81-6.87-10.45-8.71-16.89-1.84-6.44-2.77-13.35-2.77-20.72s.92-14.06,2.77-20.51c1.84-6.44,4.75-12.07,8.71-16.89,3.97-4.81,9.1-8.61,15.41-11.37,6.3-2.76,13.84-4.14,22.63-4.14,11.05,0,19.87,1.95,26.45,5.84,6.59,3.9,11.58,8.53,14.98,13.92,3.4,5.39,5.63,10.98,6.69,16.79,1.06,5.81,1.59,10.55,1.59,14.24h-78.19v2.12c0,6.8,.74,13.28,2.23,19.44,1.49,6.16,3.75,11.51,6.8,16.05,3.05,4.53,6.98,8,11.79,10.41,4.81,2.41,10.62,3.33,17.42,2.76Zm-9.78-98.17c-4.39,0-8.28,1.13-11.69,3.4-3.4,2.27-6.3,5.39-8.71,9.35-2.41,3.97-4.29,8.61-5.63,13.92-1.35,5.31-2.16,11.09-2.44,17.32h56.95v-.22c-.99-15.01-3.97-26.06-8.93-33.14-4.96-7.08-11.47-10.62-19.55-10.62Z"/>
    <path class="cls-1" d="M646.03,707.64c2.12-7.22,5.98-12.57,11.58-16.04,5.59-3.47,12.01-5.2,19.23-5.2,2.97,0,5.7,.21,8.18,.64,2.48,.42,4.71,.99,6.69,1.7,2.26,.71,4.32,1.49,6.16,2.34l-10.2,18.06c-1.13-4.39-3.47-7.9-7.01-10.52-3.54-2.62-7.58-3.79-12.11-3.51-5.1,0-9.14,1.39-12.11,4.15-2.98,2.76-5.24,5.77-6.8,9.03-1.84,3.97-3.05,8.43-3.61,13.39v60.34c0,1.13,.21,2.12,.64,2.97,.28,.85,.81,1.6,1.59,2.24,.78,.64,1.81,.96,3.08,.96v2.12h-30.59v-2.12c1.41,0,2.51-.32,3.29-.96,.78-.64,1.31-1.38,1.59-2.24,.42-.85,.64-1.84,.64-2.97v-84.99c0-1.13-.21-2.13-.64-2.98-.28-.7-.82-1.38-1.59-2.02-.78-.64-1.88-.96-3.29-.96v-2.34h21.03c1.13,0,2.13,.42,2.98,1.27s1.27,1.84,1.27,2.97v14.66Z"/>
    <path class="cls-1" d="M754.81,686.61c8.78,0,16.33,1.38,22.63,4.14,6.3,2.76,11.47,6.56,15.51,11.37,4.04,4.82,6.98,10.45,8.82,16.89,1.84,6.45,2.76,13.28,2.76,20.51s-.92,14.27-2.76,20.72c-1.84,6.44-4.78,12.08-8.82,16.89-4.04,4.82-9.17,8.61-15.4,11.37-6.23,2.76-13.81,4.14-22.74,4.14s-16.33-1.38-22.63-4.14c-6.3-2.76-11.44-6.55-15.41-11.37-3.96-4.81-6.87-10.45-8.71-16.89-1.84-6.44-2.77-13.35-2.77-20.72s.92-14.06,2.77-20.51c1.84-6.44,4.75-12.07,8.71-16.89,3.97-4.81,9.1-8.61,15.41-11.37,6.3-2.76,13.84-4.14,22.63-4.14Zm0,102.63c4.96,0,9.24-1.31,12.85-3.93,3.62-2.62,6.59-6.16,8.93-10.62,2.34-4.47,4.07-9.74,5.2-15.83,1.13-6.09,1.7-12.54,1.7-19.33s-.57-13.21-1.7-19.23c-1.13-6.01-2.87-11.26-5.2-15.72-2.34-4.46-5.31-8-8.93-10.62-3.61-2.62-7.9-3.93-12.85-3.93s-9.03,1.31-12.64,3.93c-3.61,2.63-6.58,6.16-8.92,10.62-2.34,4.47-4.07,9.71-5.21,15.72-1.13,6.02-1.7,12.43-1.7,19.23s.56,13.25,1.7,19.33c1.13,6.09,2.87,11.37,5.21,15.83,2.34,4.46,5.31,8,8.92,10.62,3.62,2.62,7.82,3.93,12.64,3.93Z"/>
  </g>
  <g>
    <path class="cls-1" d="M308.94,913.7c-6.12,.07-11.36-.88-15.75-2.85-4.39-1.97-8.62-4.86-12.7-8.66-.15-.14-.31-.35-.47-.6-.16-.26-.24-.6-.24-1.04,0-.58,.28-1.15,.83-1.7,.55-.55,1.13-.83,1.76-.83,.7,0,1.37,.33,2,.99,3.13,3.36,6.8,5.92,10.99,7.68,4.19,1.75,8.56,2.63,13.11,2.63,4,0,7.56-.6,10.7-1.81,3.13-1.21,5.6-2.93,7.4-5.16,1.8-2.23,2.7-4.85,2.7-7.84-.08-3.73-1.18-6.73-3.29-9-2.11-2.26-4.84-4.13-8.17-5.59-3.33-1.46-6.84-2.81-10.52-4.06-2.9-1.02-5.76-2.09-8.58-3.18-2.82-1.1-5.37-2.43-7.64-4-2.27-1.57-4.08-3.55-5.41-5.93-1.34-2.37-2-5.32-2-8.83s1.04-6.82,3.11-9.71c2.08-2.89,5.05-5.19,8.93-6.91,3.88-1.71,8.48-2.58,13.81-2.58,4.47,0,8.81,.75,13.05,2.25,4.23,1.5,7.56,3.75,9.99,6.75,.78,1.02,1.17,1.79,1.17,2.3s-.29,1.03-.88,1.54c-.58,.52-1.23,.77-1.94,.77-.63,0-1.14-.22-1.53-.66-1.41-1.75-3.11-3.27-5.11-4.55s-4.25-2.26-6.76-2.96c-2.51-.69-5.17-1.04-7.99-1.04-3.84,0-7.33,.59-10.46,1.76-3.13,1.17-5.64,2.83-7.52,4.99s-2.82,4.81-2.82,7.96c0,3.36,1.04,6.13,3.11,8.28s4.72,3.95,7.93,5.38c3.21,1.42,6.51,2.72,9.88,3.89,2.97,.95,5.93,1.99,8.87,3.13,2.94,1.13,5.6,2.54,7.99,4.22,2.39,1.68,4.29,3.8,5.7,6.36,1.41,2.56,2.12,5.78,2.12,9.65,0,3.36-1.04,6.47-3.11,9.33-2.08,2.85-5,5.16-8.76,6.91-3.77,1.76-8.27,2.67-13.52,2.74Z"/>
    <path class="cls-1" d="M354.42,835.81h44.31c.63,0,1.18,.22,1.65,.66s.7,.95,.7,1.54c0,.66-.24,1.19-.7,1.59s-1.02,.6-1.65,.6h-42.9l1.17-1.87v34.01l-1.41-1.54h37.85c.63,0,1.18,.22,1.65,.66,.47,.44,.7,.95,.7,1.54,0,.66-.23,1.19-.7,1.59-.47,.4-1.02,.6-1.65,.6h-37.61l1.17-1.21v34.78l-.47-.55h42.19c.63,0,1.18,.22,1.65,.66s.7,.95,.7,1.54c0,.66-.24,1.19-.7,1.59s-1.02,.6-1.65,.6h-44.31c-.63,0-1.18-.22-1.65-.66s-.7-.95-.7-1.54v-72.41c0-.58,.24-1.1,.7-1.54s1.02-.66,1.65-.66Z"/>
    <path class="cls-1" d="M455.02,913.7c-6.11,0-11.73-.97-16.87-2.91-5.13-1.94-9.6-4.68-13.4-8.23-3.8-3.54-6.74-7.73-8.81-12.56-2.08-4.83-3.12-10.09-3.12-15.8s1.04-10.97,3.12-15.79c2.08-4.83,5.01-9.02,8.81-12.57,3.8-3.55,8.26-6.29,13.4-8.23,5.13-1.94,10.76-2.91,16.87-2.91,4.31,0,8.46,.5,12.46,1.48,4,.99,7.56,2.47,10.7,4.45,.39,.22,.67,.49,.82,.82,.16,.33,.24,.68,.24,1.04,0,.73-.28,1.28-.82,1.65-.55,.37-1.02,.55-1.41,.55-.32,0-.59-.06-.83-.17-.24-.11-.47-.2-.7-.27-2.9-1.54-6.07-2.78-9.52-3.73-3.45-.95-7.09-1.43-10.93-1.43-7.28,0-13.73,1.52-19.33,4.56-5.6,3.04-9.99,7.18-13.16,12.45-3.17,5.27-4.76,11.3-4.76,18.1s1.59,12.85,4.76,18.16c3.18,5.3,7.56,9.45,13.16,12.45,5.6,3,12.05,4.5,19.33,4.5,3.92,0,7.78-.56,11.58-1.7,3.8-1.13,7.15-2.62,10.05-4.45l-.47,1.98v-27.43l1.65,1.42h-22.8c-.63,0-1.17-.22-1.64-.66-.47-.44-.71-.95-.71-1.54,0-.66,.24-1.19,.71-1.59,.47-.4,1.01-.6,1.64-.6h23.51c.7,0,1.27,.22,1.7,.66s.65,.95,.65,1.54v27.53c0,.29-.08,.62-.24,.99-.15,.37-.43,.7-.82,.98-3.45,2.2-7.31,3.95-11.58,5.27-4.27,1.32-8.68,1.97-13.23,1.97Z"/>
    <path class="cls-1" d="M558.46,835.81c.7,0,1.27,.22,1.7,.66s.65,.95,.65,1.54v47.4c0,5.19-1.37,9.92-4.11,14.21-2.74,4.28-6.39,7.7-10.93,10.26-4.55,2.56-9.6,3.84-15.16,3.84s-10.64-1.28-15.22-3.84c-4.59-2.56-8.25-5.98-10.99-10.26-2.74-4.28-4.11-9.01-4.11-14.21v-47.4c0-.58,.21-1.1,.65-1.54,.43-.44,1.04-.66,1.82-.66,.7,0,1.29,.22,1.76,.66,.47,.44,.7,.95,.7,1.54v47.4c0,4.39,1.14,8.39,3.41,12.01,2.27,3.62,5.34,6.51,9.22,8.67,3.88,2.16,8.13,3.23,12.75,3.23s8.97-1.08,12.81-3.23c3.84-2.16,6.91-5.05,9.22-8.67s3.47-7.62,3.47-12.01v-47.4c0-.58,.22-1.1,.65-1.54s1-.66,1.7-.66Z"/>
    <path class="cls-1" d="M586.78,912.61c-.78,0-1.39-.22-1.82-.66-.43-.44-.65-.95-.65-1.54v-72.41c0-.58,.24-1.1,.7-1.54s1.02-.66,1.65-.66h31.03c4.62,0,8.67,.86,12.16,2.58,3.49,1.72,6.21,4.08,8.17,7.08,1.96,3,2.94,6.4,2.94,10.2,0,3.36-.65,6.4-1.94,9.11-1.29,2.7-3.1,4.95-5.41,6.74-2.31,1.8-4.96,3.09-7.94,3.9l-5.41-.88c3.13,0,6.11,.75,8.94,2.25,2.82,1.5,5.13,3.7,6.93,6.58,1.81,2.89,2.7,6.42,2.7,10.59,0,3.59,.18,6.31,.53,8.18,.35,1.86,.82,3.23,1.41,4.11s1.27,1.57,2.06,2.09c.47,.29,.83,.66,1.06,1.1,.24,.44,.28,.95,.12,1.54-.16,.44-.42,.79-.77,1.04s-.72,.42-1.12,.49c-.39,.08-.82,0-1.29-.22-1.1-.58-2.17-1.46-3.23-2.64-1.06-1.17-1.94-2.96-2.65-5.37s-1.06-5.85-1.06-10.32c0-3.44-.57-6.18-1.7-8.23-1.14-2.05-2.59-3.62-4.35-4.72-1.76-1.1-3.64-1.82-5.64-2.19s-3.82-.55-5.46-.55h-28.56l1.06-1.31v33.46c0,.59-.23,1.1-.7,1.54-.47,.44-1.06,.66-1.76,.66Zm1.29-38.73h30.2c3.13-.29,6.03-1.17,8.7-2.63s4.84-3.51,6.53-6.15c1.68-2.64,2.52-5.74,2.52-9.33,0-4.46-1.7-8.17-5.11-11.14-3.41-2.96-8.01-4.44-13.81-4.44h-28.44l.58-.77v35.65l-1.17-1.21Z"/>
    <path class="cls-1" d="M733.82,874.21c0,5.86-.96,11.19-2.88,16.02-1.92,4.83-4.64,8.99-8.17,12.51-3.52,3.51-7.68,6.22-12.46,8.11-4.78,1.9-10.03,2.85-15.75,2.85s-10.97-.95-15.75-2.85c-4.78-1.9-8.93-4.61-12.46-8.11-3.52-3.51-6.25-7.68-8.17-12.51-1.92-4.83-2.88-10.17-2.88-16.02s.96-11.19,2.88-16.02c1.92-4.83,4.64-9,8.17-12.51,3.53-3.51,7.68-6.22,12.46-8.12,4.78-1.9,10.03-2.85,15.75-2.85s10.97,.95,15.75,2.85c4.78,1.9,8.94,4.61,12.46,8.12,3.53,3.51,6.25,7.68,8.17,12.51,1.92,4.83,2.88,10.17,2.88,16.02Zm-4.94,0c0-7.02-1.47-13.16-4.41-18.43-2.93-5.27-6.98-9.36-12.11-12.29s-11.06-4.39-17.8-4.39-12.58,1.47-17.75,4.39-9.22,7.02-12.16,12.29c-2.94,5.27-4.41,11.41-4.41,18.43s1.47,13.17,4.41,18.44c2.94,5.26,6.99,9.36,12.16,12.29,5.17,2.93,11.09,4.39,17.75,4.39s12.67-1.46,17.8-4.39c5.13-2.93,9.17-7.02,12.11-12.29,2.94-5.27,4.41-11.41,4.41-18.44Z"/>
    <path class="cls-1" d="M772.95,913.7c-6.12,.07-11.36-.88-15.75-2.85s-8.62-4.86-12.7-8.66c-.15-.14-.31-.35-.47-.6-.16-.26-.24-.6-.24-1.04,0-.58,.28-1.15,.83-1.7,.55-.55,1.13-.83,1.76-.83,.7,0,1.37,.33,2,.99,3.13,3.36,6.8,5.92,10.99,7.68,4.19,1.75,8.56,2.63,13.11,2.63,4,0,7.56-.6,10.7-1.81,3.13-1.21,5.6-2.93,7.4-5.16,1.8-2.23,2.7-4.85,2.7-7.84-.08-3.73-1.18-6.73-3.29-9-2.11-2.26-4.84-4.13-8.17-5.59-3.33-1.46-6.84-2.81-10.52-4.06-2.9-1.02-5.76-2.09-8.58-3.18-2.82-1.1-5.37-2.43-7.64-4-2.27-1.57-4.08-3.55-5.41-5.93-1.34-2.37-2-5.32-2-8.83s1.04-6.82,3.11-9.71c2.08-2.89,5.05-5.19,8.93-6.91,3.88-1.71,8.48-2.58,13.81-2.58,4.47,0,8.81,.75,13.05,2.25,4.23,1.5,7.56,3.75,9.99,6.75,.78,1.02,1.17,1.79,1.17,2.3s-.29,1.03-.88,1.54c-.58,.52-1.23,.77-1.94,.77-.63,0-1.14-.22-1.53-.66-1.41-1.75-3.11-3.27-5.11-4.55s-4.25-2.26-6.76-2.96c-2.51-.69-5.17-1.04-7.99-1.04-3.84,0-7.33,.59-10.46,1.76-3.13,1.17-5.64,2.83-7.52,4.99-1.88,2.16-2.82,4.81-2.82,7.96,0,3.36,1.04,6.13,3.11,8.28s4.72,3.95,7.93,5.38c3.21,1.42,6.51,2.72,9.88,3.89,2.97,.95,5.93,1.99,8.87,3.13,2.94,1.13,5.6,2.54,7.99,4.22,2.39,1.68,4.29,3.8,5.7,6.36,1.41,2.56,2.12,5.78,2.12,9.65,0,3.36-1.04,6.47-3.11,9.33-2.08,2.85-5,5.16-8.76,6.91-3.77,1.76-8.27,2.67-13.52,2.74Z"/>
  </g>
  <path class="cls-1" d="M664.57,500.11c.02,.59,.09,1.14,.1,1.74,0,16.83-5.05,31.49-15.18,44.02-10.11,12.53-23.97,22.17-41.55,28.93-17.6,6.76-37.6,10.16-60.01,10.16-25.51,0-50.03-4.93-73.55-14.79-23.52-9.84-44.09-24.2-61.67-43.09-3.52-3.7-7.26-5.53-11.21-5.53-3.52,0-6.81,1.55-9.89,4.61-3.08,3.1-4.63,6.26-4.63,9.54,0,2.47,.45,4.43,1.33,5.87,.87,1.42,1.74,2.56,2.63,3.38,22.86,21.35,46.6,37.54,71.22,48.64,24.62,11.07,54.09,16.4,88.39,16,29.45-.41,54.75-5.53,75.85-15.39,21.1-9.86,37.47-22.77,49.14-38.79,11.64-16.01,17.47-33.45,17.47-52.35,0-16.39-2.25-30.67-6.75-42.87-5.23,14.56-12.5,27.94-21.71,39.92Z"/>
  <path class="cls-1" d="M495.16,200.76c17.58-6.55,37.15-9.84,58.7-9.84,15.84,0,30.78,1.96,44.86,5.85,14.07,3.91,26.71,9.43,37.92,16.62,11.23,7.19,20.78,15.69,28.7,25.55,2.19,2.46,5.05,3.7,8.58,3.7,3.95,0,7.58-1.44,10.89-4.31,3.29-2.88,4.95-5.76,4.95-8.63s-2.21-7.17-6.6-12.94c-13.63-16.83-32.33-29.43-56.06-37.86-23.75-8.4-48.15-12.62-73.22-12.62-29.91,0-55.73,4.82-77.5,14.47-21.76,9.64-38.47,22.58-50.12,38.79-11.65,16.23-17.47,34.37-17.47,54.48s3.72,36.23,11.21,49.57c7.47,13.34,17.58,24.41,30.34,33.24,12.76,8.84,27.04,16.33,42.88,22.49,15.82,6.16,31.87,12.1,48.15,17.85,20.66,6.99,40.34,14.57,59.04,22.79,9.53,4.18,18.16,8.97,25.92,14.33,1.79-10.19,2.89-21.27,3.37-33.13-8.01-4.33-16.43-8.26-25.33-11.7-16.49-6.35-33.09-12.21-49.8-17.54-18.91-6.55-37.38-13.84-55.41-21.85-18.02-8.01-32.86-18.06-44.52-30.18-11.65-12.1-17.47-27.6-17.47-46.47,0-17.65,5.27-32.52,15.82-44.64,10.57-12.1,24.62-21.44,42.22-28.02Z"/>
  <path class="cls-1" d="M653.17,282.22c-11.35-14.32-26.24-25.88-44.67-34.67-18.44-8.79-41.27-13.19-68.5-13.19s-50.06,4.4-68.49,13.19c-7.15,3.41-13.74,7.24-19.82,11.48-1.04,4.48-1.58,9.26-1.58,14.39,0,9.02,1.57,16.9,4.67,23.84,3.04-6.32,6.36-12.26,10.14-17.59,8.94-12.62,19.71-22.19,32.33-28.72,12.62-6.52,26.87-9.79,42.75-9.79,31.76,0,56.86,12.55,75.3,37.65,18.43,25.1,27.65,61.48,27.65,109.12s-9.22,84.02-27.65,109.13c-18.44,25.1-43.54,37.65-75.3,37.65-15.88,0-30.14-3.26-42.75-9.78-12.62-6.52-23.4-16.09-32.33-28.72-8.93-12.62-15.81-28.01-20.63-46.16-4.83-18.15-7.24-38.86-7.24-62.11,0-8.36,.42-16.27,1.05-23.97-12.12-9.33-22.02-20.75-29.45-34.02-1.31-2.34-2.49-4.78-3.6-7.29-.96,2.85-1.87,5.74-2.66,8.69-4.97,18.44-7.45,37.3-7.45,56.58s2.48,38.15,7.45,56.58c4.96,18.44,13.11,34.82,24.46,49.14,11.34,14.33,26.23,25.89,44.67,34.67,18.43,8.8,41.27,13.19,68.49,13.19s50.06-4.39,68.5-13.19c18.43-8.79,33.32-20.35,44.67-34.67,11.34-14.32,19.5-30.7,24.46-49.14,4.96-18.43,7.44-37.29,7.44-56.58s-2.49-38.14-7.44-56.58c-4.96-18.43-13.12-34.81-24.46-49.14Z"/>
</svg>